<svg width="17" height="17" viewBox="0 0 17 17" fill="none" xmlns="http://www.w3.org/2000/svg">
<g clip-path="url(#clip0_619_22372)">
<path d="M8.96436 16.6428C13.3826 16.6428 16.9644 13.0611 16.9644 8.64282C16.9644 4.22454 13.3826 0.642822 8.96436 0.642822C4.54608 0.642822 0.964355 4.22454 0.964355 8.64282C0.964355 13.0611 4.54608 16.6428 8.96436 16.6428Z" fill="white"/>
<g filter="url(#filter0_d_619_22372)">
<path d="M8.82663 3.67286C9.06613 3.54936 9.35863 3.83486 9.23163 4.07036C9.15713 4.26236 8.87663 4.31336 8.73363 4.16686C8.58213 4.02686 8.63163 3.74886 8.82663 3.67236V3.67286ZM6.24913 3.94586C6.39463 3.88686 6.57913 4.01786 6.56413 4.17436C6.57913 4.34336 6.36913 4.46836 6.22063 4.38786C6.02413 4.31286 6.04663 3.99886 6.24913 3.94586ZM11.5281 4.39236C11.3006 4.36536 11.2646 4.01336 11.4831 3.94236C11.6531 3.86136 11.8091 4.01386 11.8341 4.17236C11.7981 4.30736 11.6831 4.43136 11.5281 4.39236ZM6.83563 5.02486C7.07913 4.87336 7.42613 5.09886 7.38863 5.37736C7.37613 5.65786 6.99713 5.82086 6.78313 5.63086C6.57613 5.48186 6.60763 5.13986 6.83563 5.02486ZM10.5506 5.18586C10.6591 4.91086 11.0991 4.90186 11.2226 5.16986C11.3451 5.37836 11.1946 5.63686 10.9771 5.70786C10.6886 5.76086 10.4151 5.45386 10.5506 5.18586ZM8.51613 5.69236C8.51363 5.45536 8.73263 5.27936 8.96113 5.26286C9.11313 5.29286 9.27813 5.35636 9.34313 5.50686C9.46463 5.71486 9.35663 6.00036 9.13813 6.09586C9.03813 6.15086 8.91913 6.13036 8.81013 6.12386C8.64363 6.04386 8.50313 5.88536 8.51613 5.69236ZM4.68313 6.03736C4.90563 5.90236 5.20563 6.14736 5.12113 6.38536C5.07513 6.59086 4.79413 6.67436 4.63363 6.54336C4.46213 6.42036 4.48913 6.12486 4.68363 6.03686L4.68313 6.03736ZM12.9141 6.03636C13.1026 5.89236 13.4141 6.05786 13.3911 6.29186C13.4041 6.50536 13.1346 6.66686 12.9476 6.55686C12.7416 6.46536 12.7201 6.15336 12.9141 6.03686V6.03636ZM9.59413 6.46186C9.90513 6.35186 10.2751 6.48336 10.4521 6.75686C10.6861 7.09036 10.5621 7.59836 10.1986 7.78986C9.82263 8.01636 9.27313 7.82486 9.13363 7.41086C8.97613 7.04086 9.20613 6.57786 9.59363 6.46186H9.59413ZM7.76763 6.49836C8.11263 6.33836 8.57713 6.47236 8.74363 6.81936C8.93963 7.15736 8.78813 7.62786 8.43763 7.80236C8.08663 7.99886 7.59113 7.84986 7.42163 7.48736C7.23113 7.13636 7.40013 6.65986 7.76763 6.49836ZM5.93913 7.11286C5.96563 6.89436 6.17513 6.75186 6.38663 6.73686C6.49693 6.74851 6.60002 6.79723 6.67904 6.87507C6.75805 6.9529 6.80833 7.05524 6.82163 7.16536C6.80663 7.39036 6.63013 7.60936 6.38813 7.60836C6.12163 7.63086 5.88813 7.36986 5.93913 7.11286ZM11.3401 6.78486C11.6136 6.62836 11.9931 6.85586 11.9811 7.16486C11.9996 7.49236 11.5796 7.72286 11.3076 7.53086C11.0246 7.37086 11.0466 6.92086 11.3401 6.78486ZM7.02513 7.93836C7.34413 7.85186 7.71013 7.99986 7.86663 8.28886C8.03813 8.57986 7.96813 8.98386 7.70163 9.19786C7.35913 9.51086 6.72863 9.38486 6.54663 8.95786C6.33713 8.56636 6.59163 8.04136 7.02463 7.93786L7.02513 7.93836ZM10.4886 7.93686C10.7991 7.84936 11.1641 7.96686 11.3311 8.24536C11.5521 8.56386 11.4466 9.03936 11.1181 9.24436C10.7731 9.48286 10.2401 9.35786 10.0501 8.98486C9.82013 8.59936 10.0516 8.05436 10.4886 7.93686ZM4.96863 8.29986C5.24463 8.19736 5.55063 8.49686 5.43863 8.76636C5.37063 9.01136 5.01913 9.10236 4.83763 8.92136C4.62513 8.75136 4.70363 8.37386 4.96863 8.29986ZM12.4531 8.69086C12.4479 8.58079 12.4864 8.47313 12.5602 8.39129C12.634 8.30945 12.7371 8.26006 12.8471 8.25386C13.0361 8.28386 13.2201 8.43386 13.2051 8.63636C13.2226 8.90386 12.8951 9.08536 12.6631 8.95986C12.5546 8.90536 12.4991 8.79586 12.4531 8.69086ZM3.61113 8.43286C3.77713 8.36136 3.98263 8.50286 3.94463 8.68436C3.93563 8.88986 3.62713 8.96936 3.51413 8.79736C3.41413 8.67786 3.47413 8.49436 3.61113 8.43236V8.43286ZM14.0856 8.42836C14.2026 8.34686 14.3906 8.40536 14.4366 8.53986C14.5151 8.68686 14.3711 8.88786 14.2031 8.86336C13.9671 8.88436 13.8911 8.53086 14.0856 8.42836ZM7.92713 9.41486C8.36413 9.30336 8.83413 9.66186 8.83713 10.1049C8.86513 10.5524 8.40213 10.9489 7.95513 10.8459C7.60913 10.7909 7.33763 10.4629 7.34913 10.1194C7.34813 9.79036 7.60013 9.48436 7.92713 9.41486ZM9.65813 9.41436C10.1016 9.29236 10.5856 9.65736 10.5786 10.1104C10.6021 10.5494 10.1536 10.9329 9.71563 10.8454C9.30313 10.7934 8.99913 10.3479 9.11413 9.95386C9.17213 9.69186 9.39513 9.47886 9.65813 9.41386V9.41436ZM6.32013 9.68686C6.62713 9.63536 6.91513 9.97186 6.79063 10.2589C6.69963 10.5649 6.24763 10.6474 6.04763 10.3979C5.81363 10.1579 5.98863 9.71986 6.32013 9.68686ZM11.3971 9.70036C11.6711 9.58736 12.0071 9.82036 11.9861 10.1129C11.9971 10.4344 11.5821 10.6564 11.3146 10.4684C11.0111 10.2999 11.0666 9.80336 11.3971 9.70036ZM12.8161 11.1004C12.7091 10.9039 12.9036 10.6434 13.1261 10.6799C13.2361 10.6779 13.3136 10.7634 13.3841 10.8354C13.3986 10.9519 13.4231 11.0909 13.3246 11.1804C13.1911 11.3469 12.8886 11.2994 12.8161 11.1004ZM4.68213 10.7344C4.88963 10.5989 5.18813 10.8014 5.14113 11.0394C5.11613 11.2509 4.84613 11.3714 4.66863 11.2514C4.47763 11.1429 4.48463 10.8334 4.68213 10.7344ZM8.77863 11.1759C9.05013 11.0584 9.39613 11.2909 9.37013 11.5849C9.39013 11.9099 8.96263 12.1349 8.69713 11.9399C8.40213 11.7724 8.45163 11.2794 8.77863 11.1759ZM6.88163 11.6114C7.11263 11.4919 7.42263 11.6984 7.40163 11.9534C7.40863 12.1624 7.20163 12.3404 6.99163 12.3094C6.81813 12.3059 6.70513 12.1524 6.64913 12.0069C6.65213 11.8484 6.71863 11.6719 6.88163 11.6119V11.6114ZM10.7246 11.6154C10.9626 11.4704 11.3006 11.6784 11.2781 11.9504C11.2841 12.2354 10.9021 12.4174 10.6806 12.2304C10.4666 12.0839 10.4926 11.7319 10.7246 11.6154ZM11.3931 13.2404C11.2871 13.0834 11.4116 12.8939 11.5831 12.8579C11.7216 12.8854 11.8681 12.9879 11.8386 13.1449C11.8186 13.3584 11.5016 13.4234 11.3931 13.2409V13.2404ZM6.08763 13.1039C6.12963 12.9789 6.23163 12.8554 6.38113 12.8879C6.59863 12.9029 6.66313 13.2259 6.47263 13.3254C6.30163 13.4389 6.10263 13.2834 6.08763 13.1039ZM8.64763 13.2474C8.68913 13.0624 8.93163 12.9729 9.09163 13.0709C9.19763 13.1159 9.22863 13.2319 9.25563 13.3309C9.24136 13.3823 9.22803 13.434 9.21563 13.4859C9.15013 13.5619 9.06563 13.6384 8.95663 13.6359C8.75413 13.6594 8.57113 13.4339 8.64713 13.2474H8.64763Z" fill="black"/>
</g>
<path d="M8.82663 3.67286C9.06613 3.54936 9.35863 3.83486 9.23163 4.07036C9.15713 4.26236 8.87663 4.31336 8.73363 4.16686C8.58213 4.02686 8.63163 3.74886 8.82663 3.67236V3.67286ZM6.24913 3.94586C6.39463 3.88686 6.57913 4.01786 6.56413 4.17436C6.57913 4.34336 6.36913 4.46836 6.22063 4.38786C6.02413 4.31286 6.04663 3.99886 6.24913 3.94586ZM11.5281 4.39236C11.3006 4.36536 11.2646 4.01336 11.4831 3.94236C11.6531 3.86136 11.8091 4.01386 11.8341 4.17236C11.7981 4.30736 11.6831 4.43136 11.5281 4.39236ZM6.83563 5.02486C7.07913 4.87336 7.42613 5.09886 7.38863 5.37736C7.37613 5.65786 6.99713 5.82086 6.78313 5.63086C6.57613 5.48186 6.60763 5.13986 6.83563 5.02486ZM10.5506 5.18586C10.6591 4.91086 11.0991 4.90186 11.2226 5.16986C11.3451 5.37836 11.1946 5.63686 10.9771 5.70786C10.6886 5.76086 10.4151 5.45386 10.5506 5.18586ZM8.51613 5.69236C8.51363 5.45536 8.73263 5.27936 8.96113 5.26286C9.11313 5.29286 9.27813 5.35636 9.34313 5.50686C9.46463 5.71486 9.35663 6.00036 9.13813 6.09586C9.03813 6.15086 8.91913 6.13036 8.81013 6.12386C8.64363 6.04386 8.50313 5.88536 8.51613 5.69236ZM4.68313 6.03736C4.90563 5.90236 5.20563 6.14736 5.12113 6.38536C5.07513 6.59086 4.79413 6.67436 4.63363 6.54336C4.46213 6.42036 4.48913 6.12486 4.68363 6.03686L4.68313 6.03736ZM12.9141 6.03636C13.1026 5.89236 13.4141 6.05786 13.3911 6.29186C13.4041 6.50536 13.1346 6.66686 12.9476 6.55686C12.7416 6.46536 12.7201 6.15336 12.9141 6.03686V6.03636ZM9.59413 6.46186C9.90513 6.35186 10.2751 6.48336 10.4521 6.75686C10.6861 7.09036 10.5621 7.59836 10.1986 7.78986C9.82263 8.01636 9.27313 7.82486 9.13363 7.41086C8.97613 7.04086 9.20613 6.57786 9.59363 6.46186H9.59413ZM7.76763 6.49836C8.11263 6.33836 8.57713 6.47236 8.74363 6.81936C8.93963 7.15736 8.78813 7.62786 8.43763 7.80236C8.08663 7.99886 7.59113 7.84986 7.42163 7.48736C7.23113 7.13636 7.40013 6.65986 7.76763 6.49836ZM5.93913 7.11286C5.96563 6.89436 6.17513 6.75186 6.38663 6.73686C6.49693 6.74851 6.60002 6.79723 6.67904 6.87507C6.75805 6.9529 6.80833 7.05524 6.82163 7.16536C6.80663 7.39036 6.63013 7.60936 6.38813 7.60836C6.12163 7.63086 5.88813 7.36986 5.93913 7.11286ZM11.3401 6.78486C11.6136 6.62836 11.9931 6.85586 11.9811 7.16486C11.9996 7.49236 11.5796 7.72286 11.3076 7.53086C11.0246 7.37086 11.0466 6.92086 11.3401 6.78486ZM7.02513 7.93836C7.34413 7.85186 7.71013 7.99986 7.86663 8.28886C8.03813 8.57986 7.96813 8.98386 7.70163 9.19786C7.35913 9.51086 6.72863 9.38486 6.54663 8.95786C6.33713 8.56636 6.59163 8.04136 7.02463 7.93786L7.02513 7.93836ZM10.4886 7.93686C10.7991 7.84936 11.1641 7.96686 11.3311 8.24536C11.5521 8.56386 11.4466 9.03936 11.1181 9.24436C10.7731 9.48286 10.2401 9.35786 10.0501 8.98486C9.82013 8.59936 10.0516 8.05436 10.4886 7.93686ZM4.96863 8.29986C5.24463 8.19736 5.55063 8.49686 5.43863 8.76636C5.37063 9.01136 5.01913 9.10236 4.83763 8.92136C4.62513 8.75136 4.70363 8.37386 4.96863 8.29986ZM12.4531 8.69086C12.4479 8.58079 12.4864 8.47313 12.5602 8.39129C12.634 8.30945 12.7371 8.26006 12.8471 8.25386C13.0361 8.28386 13.2201 8.43386 13.2051 8.63636C13.2226 8.90386 12.8951 9.08536 12.6631 8.95986C12.5546 8.90536 12.4991 8.79586 12.4531 8.69086ZM3.61113 8.43286C3.77713 8.36136 3.98263 8.50286 3.94463 8.68436C3.93563 8.88986 3.62713 8.96936 3.51413 8.79736C3.41413 8.67786 3.47413 8.49436 3.61113 8.43236V8.43286ZM14.0856 8.42836C14.2026 8.34686 14.3906 8.40536 14.4366 8.53986C14.5151 8.68686 14.3711 8.88786 14.2031 8.86336C13.9671 8.88436 13.8911 8.53086 14.0856 8.42836ZM7.92713 9.41486C8.36413 9.30336 8.83413 9.66186 8.83713 10.1049C8.86513 10.5524 8.40213 10.9489 7.95513 10.8459C7.60913 10.7909 7.33763 10.4629 7.34913 10.1194C7.34813 9.79036 7.60013 9.48436 7.92713 9.41486ZM9.65813 9.41436C10.1016 9.29236 10.5856 9.65736 10.5786 10.1104C10.6021 10.5494 10.1536 10.9329 9.71563 10.8454C9.30313 10.7934 8.99913 10.3479 9.11413 9.95386C9.17213 9.69186 9.39513 9.47886 9.65813 9.41386V9.41436ZM6.32013 9.68686C6.62713 9.63536 6.91513 9.97186 6.79063 10.2589C6.69963 10.5649 6.24763 10.6474 6.04763 10.3979C5.81363 10.1579 5.98863 9.71986 6.32013 9.68686ZM11.3971 9.70036C11.6711 9.58736 12.0071 9.82036 11.9861 10.1129C11.9971 10.4344 11.5821 10.6564 11.3146 10.4684C11.0111 10.2999 11.0666 9.80336 11.3971 9.70036ZM12.8161 11.1004C12.7091 10.9039 12.9036 10.6434 13.1261 10.6799C13.2361 10.6779 13.3136 10.7634 13.3841 10.8354C13.3986 10.9519 13.4231 11.0909 13.3246 11.1804C13.1911 11.3469 12.8886 11.2994 12.8161 11.1004ZM4.68213 10.7344C4.88963 10.5989 5.18813 10.8014 5.14113 11.0394C5.11613 11.2509 4.84613 11.3714 4.66863 11.2514C4.47763 11.1429 4.48463 10.8334 4.68213 10.7344ZM8.77863 11.1759C9.05013 11.0584 9.39613 11.2909 9.37013 11.5849C9.39013 11.9099 8.96263 12.1349 8.69713 11.9399C8.40213 11.7724 8.45163 11.2794 8.77863 11.1759ZM6.88163 11.6114C7.11263 11.4919 7.42263 11.6984 7.40163 11.9534C7.40863 12.1624 7.20163 12.3404 6.99163 12.3094C6.81813 12.3059 6.70513 12.1524 6.64913 12.0069C6.65213 11.8484 6.71863 11.6719 6.88163 11.6119V11.6114ZM10.7246 11.6154C10.9626 11.4704 11.3006 11.6784 11.2781 11.9504C11.2841 12.2354 10.9021 12.4174 10.6806 12.2304C10.4666 12.0839 10.4926 11.7319 10.7246 11.6154ZM11.3931 13.2404C11.2871 13.0834 11.4116 12.8939 11.5831 12.8579C11.7216 12.8854 11.8681 12.9879 11.8386 13.1449C11.8186 13.3584 11.5016 13.4234 11.3931 13.2409V13.2404ZM6.08763 13.1039C6.12963 12.9789 6.23163 12.8554 6.38113 12.8879C6.59863 12.9029 6.66313 13.2259 6.47263 13.3254C6.30163 13.4389 6.10263 13.2834 6.08763 13.1039ZM8.64763 13.2474C8.68913 13.0624 8.93163 12.9729 9.09163 13.0709C9.19763 13.1159 9.22863 13.2319 9.25563 13.3309C9.24136 13.3823 9.22803 13.434 9.21563 13.4859C9.15013 13.5619 9.06563 13.6384 8.95663 13.6359C8.75413 13.6594 8.57113 13.4339 8.64713 13.2474H8.64763Z" fill="#0D1E30"/>
</g>
<defs>
<filter id="filter0_d_619_22372" x="2.46436" y="3.14307" width="12.9941" height="11.9944" filterUnits="userSpaceOnUse" color-interpolation-filters="sRGB">
<feFlood flood-opacity="0" result="BackgroundImageFix"/>
<feColorMatrix in="SourceAlpha" type="matrix" values="0 0 0 0 0 0 0 0 0 0 0 0 0 0 0 0 0 0 127 0" result="hardAlpha"/>
<feOffset dy="0.5"/>
<feGaussianBlur stdDeviation="0.5"/>
<feColorMatrix type="matrix" values="0 0 0 0 0 0 0 0 0 0 0 0 0 0 0 0 0 0 0.204257 0"/>
<feBlend mode="normal" in2="BackgroundImageFix" result="effect1_dropShadow_619_22372"/>
<feBlend mode="normal" in="SourceGraphic" in2="effect1_dropShadow_619_22372" result="shape"/>
</filter>
<clipPath id="clip0_619_22372">
<rect width="16" height="16" fill="white" transform="translate(0.964355 0.642822)"/>
</clipPath>
</defs>
</svg>
