<svg width="24" height="24" viewBox="0 0 24 24" fill="none" xmlns="http://www.w3.org/2000/svg">
<path fill-rule="evenodd" clip-rule="evenodd" d="M6.75 6.75H6C5.00543 6.75014 4.05159 7.14506 3.348 7.848C2.64506 8.55159 2.25014 9.50543 2.25 10.5V18C2.25 18.9945 2.64525 19.9485 3.348 20.652C4.05159 21.3549 5.00543 21.7499 6 21.75H13.5C14.4946 21.7499 15.4484 21.3549 16.152 20.652C16.8549 19.9484 17.2499 18.9946 17.25 18V17.25H18C18.9946 17.2499 19.9484 16.8549 20.652 16.152C21.3549 15.4484 21.7499 14.4946 21.75 13.5V6C21.7499 5.00543 21.3549 4.05159 20.652 3.348C19.9484 2.64506 18.9946 2.25014 18 2.25H10.5C9.50543 2.25014 8.55159 2.64506 7.848 3.348C7.14506 4.05159 6.75014 5.00543 6.75 6V6.75ZM15.75 10.5V18C15.75 18.597 15.513 19.1693 15.0908 19.5908C14.882 19.7998 14.634 19.9657 14.361 20.0788C14.0881 20.1919 13.7955 20.2501 13.5 20.25H6C5.70453 20.2501 5.41193 20.1919 5.13897 20.0788C4.86601 19.9657 4.61804 19.7998 4.40925 19.5908C4.20017 19.382 4.03432 19.134 3.9212 18.861C3.80808 18.5881 3.7499 18.2955 3.75 18V10.5C3.75 9.903 3.987 9.33075 4.40925 8.90925C4.61804 8.70017 4.86601 8.53432 5.13897 8.4212C5.41193 8.30808 5.70453 8.2499 6 8.25H13.5C14.097 8.25 14.6693 8.487 15.0908 8.90925C15.513 9.33075 15.75 9.903 15.75 10.5ZM17.25 15.75H18C18.597 15.75 19.1693 15.513 19.5908 15.0908C19.7998 14.882 19.9657 14.634 20.0788 14.361C20.1919 14.0881 20.2501 13.7955 20.25 13.5V6C20.25 5.403 20.013 4.83075 19.5908 4.40925C19.382 4.20017 19.134 4.03432 18.861 3.9212C18.5881 3.80808 18.2955 3.7499 18 3.75H10.5C9.903 3.75 9.33075 3.987 8.90925 4.40925C8.70017 4.61804 8.53432 4.86601 8.4212 5.13897C8.30808 5.41193 8.2499 5.70453 8.25 6V6.75H13.5C14.4945 6.75 15.4485 7.14525 16.152 7.848C16.8549 8.55159 17.2499 9.50543 17.25 10.5V15.75Z" fill="#070708"/>
</svg>
