<svg width="32" height="32" viewBox="0 0 32 32" fill="none" xmlns="http://www.w3.org/2000/svg">
<path d="M13.4347 14.6667C14.2347 14.6667 14.8827 15.2667 14.868 16C14.868 16.7334 14.236 17.3334 13.4347 17.3334C12.648 17.3334 12 16.7334 12 16C12 15.2667 12.6333 14.6667 13.4347 14.6667ZM18.5653 14.6667C19.3667 14.6667 20 15.2667 20 16C20 16.7334 19.3667 17.3334 18.5653 17.3334C17.7787 17.3334 17.132 16.7334 17.132 16C17.132 15.2667 17.764 14.6667 18.5653 14.6667ZM25.188 2.66669C26.7387 2.66669 28 3.95469 28 5.55069V30.6667L25.052 28.0067L23.392 26.4387L21.636 24.772L22.364 27.3627H6.812C5.26133 27.3627 4 26.0747 4 24.4787V5.55069C4 3.95469 5.26133 2.66669 6.812 2.66669H25.1867H25.188ZM19.8947 20.9507C22.9253 20.8534 24.092 18.8227 24.092 18.8227C24.092 14.3147 22.116 10.66 22.116 10.66C20.1427 9.14935 18.2627 9.19069 18.2627 9.19069L18.0707 9.41469C20.4027 10.1427 21.4853 11.1934 21.4853 11.1934C20.2121 10.476 18.8089 10.0191 17.3573 9.84935C16.4366 9.74536 15.5066 9.75431 14.588 9.87602C14.5053 9.87602 14.436 9.89069 14.3547 9.90402C13.8747 9.94669 12.708 10.128 11.2413 10.7867C10.7347 11.024 10.432 11.1934 10.432 11.1934C10.432 11.1934 11.5707 10.0867 14.0387 9.35869L13.9013 9.19069C13.9013 9.19069 12.0227 9.14935 10.048 10.6614C10.048 10.6614 8.07333 14.3147 8.07333 18.8227C8.07333 18.8227 9.22533 20.852 12.256 20.9507C12.256 20.9507 12.7627 20.3214 13.176 19.7894C11.4333 19.256 10.776 18.136 10.776 18.136C10.776 18.136 10.912 18.2347 11.1587 18.3747C11.172 18.388 11.1853 18.4027 11.2133 18.416C11.2547 18.4454 11.296 18.4587 11.3373 18.4867C11.68 18.6827 12.0227 18.836 12.3373 18.9627C12.9 19.1867 13.572 19.4107 14.3547 19.5654C15.5271 19.7952 16.7325 19.7997 17.9067 19.5787C18.5906 19.4566 19.2578 19.2548 19.8947 18.9774C20.3747 18.7947 20.9093 18.528 21.472 18.1507C21.472 18.1507 20.7867 19.2987 18.9893 19.8174C19.4013 20.3494 19.896 20.9507 19.896 20.9507H19.8947Z" fill="white"/>
</svg>
