<svg width="52" height="52" viewBox="0 0 52 52" fill="none" xmlns="http://www.w3.org/2000/svg">
<rect x="0.5" y="0.5" width="51" height="51" rx="11.5" fill="white" stroke="#C2C1DB"/>
<path d="M16.25 20C16.25 19.586 16.586 19.25 17 19.25H35C35.414 19.25 35.75 19.586 35.75 20C35.75 20.414 35.414 20.75 35 20.75H17C16.586 20.75 16.25 20.414 16.25 20ZM35 25.25H17C16.586 25.25 16.25 25.586 16.25 26C16.25 26.414 16.586 26.75 17 26.75H35C35.414 26.75 35.75 26.414 35.75 26C35.75 25.586 35.414 25.25 35 25.25ZM35 31.25H17C16.586 31.25 16.25 31.586 16.25 32C16.25 32.414 16.586 32.75 17 32.75H35C35.414 32.75 35.75 32.414 35.75 32C35.75 31.586 35.414 31.25 35 31.25Z" fill="#25314C"/>
</svg>
