<svg width="32" height="32" viewBox="0 0 32 32" fill="none" xmlns="http://www.w3.org/2000/svg">
<path d="M16 29.3334C8.63602 29.3334 2.66669 23.364 2.66669 16C2.66669 8.63602 8.63602 2.66669 16 2.66669C23.364 2.66669 29.3334 8.63602 29.3334 16C29.3334 23.364 23.364 29.3334 16 29.3334ZM11.8534 17.56L11.8707 17.5507L13.0307 21.3774C13.18 21.792 13.3854 21.8667 13.6347 21.832C13.8854 21.7987 14.0174 21.664 14.1814 21.5067L15.7654 19.976L19.1654 22.4934C19.7867 22.836 20.2334 22.6587 20.388 21.9174L22.5974 11.488C22.8414 10.5174 22.4147 10.128 21.6614 10.4374L8.68402 15.4507C7.79869 15.8054 7.80402 16.3014 8.52402 16.5214L11.8534 17.5614V17.56Z" fill="white"/>
</svg>
