<svg width="18" height="18" viewBox="0 0 18 18" fill="none" xmlns="http://www.w3.org/2000/svg">
<path fill-rule="evenodd" clip-rule="evenodd" d="M9 2.65385C5.49512 2.65385 2.65385 5.49512 2.65385 9C2.65385 12.5049 5.49512 15.3462 9 15.3462C12.5049 15.3462 15.3462 12.5049 15.3462 9C15.3462 5.49512 12.5049 2.65385 9 2.65385ZM1.5 9C1.5 4.85786 4.85786 1.5 9 1.5C13.1421 1.5 16.5 4.85786 16.5 9C16.5 13.1421 13.1421 16.5 9 16.5C4.85786 16.5 1.5 13.1421 1.5 9Z" fill="#525183"/>
<path fill-rule="evenodd" clip-rule="evenodd" d="M9 12.2692C9.31863 12.2692 9.57692 12.0109 9.57692 11.6923V8.61539C9.57692 8.29676 9.31863 8.03846 9 8.03846C8.68138 8.03846 8.42308 8.29676 8.42308 8.61539V11.6923C8.42308 12.0109 8.68138 12.2692 9 12.2692Z" fill="#525183"/>
<path d="M9.76923 6.30769C9.76923 5.88286 9.42484 5.53846 9 5.53846C8.57517 5.53846 8.23077 5.88286 8.23077 6.30769C8.23077 6.73253 8.57517 7.07692 9 7.07692C9.42484 7.07692 9.76923 6.73253 9.76923 6.30769Z" fill="#525183"/>
</svg>
