<svg width="13" height="13" viewBox="0 0 13 13" fill="none" xmlns="http://www.w3.org/2000/svg">
<path d="M6.20996 1.26562C3.45486 1.26562 1.20996 3.51052 1.20996 6.26563C1.20996 9.02073 3.45486 11.2656 6.20996 11.2656C8.96506 11.2656 11.21 9.02073 11.21 6.26563C11.21 3.51052 8.96506 1.26562 6.20996 1.26562ZM7.99568 5.50032L5.95486 7.54114C5.85282 7.59216 5.8018 7.64318 5.69976 7.64318C5.59772 7.64318 5.49568 7.59216 5.44466 7.54114L4.42425 6.52073C4.27119 6.36767 4.27119 6.11256 4.42425 5.9595C4.57731 5.80644 4.83241 5.80644 4.98547 5.9595L5.75078 6.72481L7.53649 4.93909C7.68955 4.78603 7.94466 4.78603 8.09772 4.93909C8.14874 5.14318 8.14874 5.34726 7.99568 5.50032Z" fill="#3FAD57"/>
</svg>
