<svg width="24" height="24" viewBox="0 0 24 24" fill="none" xmlns="http://www.w3.org/2000/svg">
<path fill-rule="evenodd" clip-rule="evenodd" d="M4.22651 4.22676C4.52885 3.92441 5.01905 3.92441 5.32139 4.22676L11.9998 10.9051L18.6781 4.22676C18.9805 3.92441 19.4707 3.92441 19.773 4.22676C20.0753 4.5291 20.0753 5.01929 19.773 5.32163L13.0946 12L19.773 18.6784C20.0753 18.9807 20.0753 19.4709 19.773 19.7732C19.4707 20.0756 18.9805 20.0756 18.6781 19.7732L11.9998 13.0949L5.32139 19.7732C5.01905 20.0756 4.52885 20.0756 4.22651 19.7732C3.92417 19.4709 3.92417 18.9807 4.22651 18.6784L10.9049 12L4.22651 5.32163C3.92417 5.01929 3.92417 4.5291 4.22651 4.22676Z" fill="#D51919"/>
</svg>